<svg width="12" height="13" viewBox="0 0 12 13" fill="none" xmlns="http://www.w3.org/2000/svg">
<path fill-rule="evenodd" clip-rule="evenodd" d="M7.45657 1.74754C7.85098 1.58411 8.27372 1.5 8.70064 1.5C9.12757 1.5 9.55031 1.58411 9.94472 1.74754C10.3391 1.91093 10.6973 2.1504 10.9991 2.45228C11.301 2.75405 11.5406 3.1125 11.704 3.50684C11.8674 3.90125 11.9516 4.32399 11.9516 4.75091C11.9516 5.17784 11.8674 5.60058 11.704 5.99499C11.5406 6.38936 11.3011 6.74767 10.9992 7.04947C10.9992 7.04949 10.9992 7.04944 10.9992 7.04947L6.5792 11.4695C6.38394 11.6647 6.06735 11.6647 5.87209 11.4695L1.45209 7.04947C0.842478 6.43985 0.5 5.61304 0.5 4.75091C0.5 3.88879 0.842478 3.06197 1.45209 2.45236C2.06171 1.84275 2.88852 1.50027 3.75065 1.50027C4.61277 1.50027 5.43958 1.84275 6.0492 2.45236L6.22565 2.62881L6.40201 2.45244C6.40198 2.45247 6.40204 2.45241 6.40201 2.45244C6.7038 2.15053 7.0622 1.91095 7.45657 1.74754ZM8.70064 2.5C8.40508 2.5 8.11241 2.55823 7.83936 2.67137C7.56631 2.78451 7.31823 2.95034 7.10928 3.15938L6.5792 3.68947C6.38394 3.88473 6.06735 3.88473 5.87209 3.68947L5.34209 3.15947C4.92001 2.73739 4.34755 2.50027 3.75065 2.50027C3.15374 2.50027 2.58128 2.73739 2.1592 3.15947C1.73712 3.58154 1.5 4.154 1.5 4.75091C1.5 5.34782 1.73712 5.92028 2.1592 6.34236L6.22565 10.4088L10.2921 6.34236C10.5011 6.13341 10.667 5.88525 10.7802 5.61219C10.8933 5.33914 10.9516 5.04648 10.9516 4.75091C10.9516 4.45535 10.8933 4.16268 10.7802 3.88963C10.667 3.61658 10.5012 3.36849 10.2922 3.15955C10.0832 2.95051 9.83498 2.78451 9.56193 2.67137C9.28887 2.55823 8.99621 2.5 8.70064 2.5Z" fill="#FCFCFC"/>
</svg>
