<svg width="29" height="29" viewBox="0 0 29 29" fill="none" xmlns="http://www.w3.org/2000/svg">
<g clip-path="url(#clip0_1_19)">
<path d="M21.1461 1.10823C19.7855 1.12939 18.4545 1.50922 17.2876 2.20935C16.1207 2.90948 15.1593 3.90512 14.5003 5.09573C13.8413 3.90512 12.8798 2.90948 11.713 2.20935C10.5461 1.50922 9.21511 1.12939 7.85446 1.10823C5.68543 1.20247 3.64186 2.15133 2.1702 3.74751C0.698542 5.34369 -0.0815698 7.45745 0.000295467 9.62698C0.000295467 17.8134 13.2388 27.2686 13.8019 27.6698L14.5003 28.164L15.1987 27.6698C15.7618 27.2711 29.0003 17.8134 29.0003 9.62698C29.0822 7.45745 28.302 5.34369 26.8304 3.74751C25.3587 2.15133 23.3152 1.20247 21.1461 1.10823Z" fill="white"/>
</g>
<defs>
<clipPath id="clip0_1_19">
<rect width="29" height="29" fill="white"/>
</clipPath>
</defs>
</svg>
